<svg xmlns="http://www.w3.org/2000/svg" width="1000" height="1000" id="empty" style=""><rect width="1000" height="1000" x="0" y="0" fill="#37373f"></rect><g id="icon"><path fill="#000000" d="M506.43430432338977 204.91918741760242L351.2343043233897 115.31918741760242C340.13430432338976 108.91918741760243 323.33430432338974 108.91918741760243 312.2343043233898 115.31918741760242L156.93430432338974 204.91918741760242C145.83430432338974 211.31918741760242 137.43430432338974 225.81918741760242 137.43430432338974 238.71918741760243L137.43430432338974 400.4191874176024C131.33430432338974 403.9191874176024 127.23430432338975 410.4191874176024 127.23430432338975 417.9191874176024C127.23430432338975 429.1191874176024 136.33430432338974 438.1191874176024 147.43430432338974 438.1191874176024C158.63430432338976 438.1191874176024 167.63430432338976 429.01918741760244 167.63430432338976 417.9191874176024C167.63430432338976 410.4191874176024 163.53430432338973 403.81918741760245 157.43430432338974 400.4191874176024L157.43430432338974 238.71918741760243C157.43430432338974 233.11918741760243 162.03430432338973 225.11918741760243 166.93430432338974 222.31918741760242L322.2343043233898 132.71918741760243C327.13430432338976 129.91918741760242 336.33430432338974 129.91918741760242 341.13430432338976 132.71918741760243L496.43430432338977 222.31918741760242C501.33430432338974 225.11918741760243 505.93430432338977 233.11918741760243 505.93430432338977 238.71918741760243L505.93430432338977 418.01918741760244C505.93430432338977 423.6191874176024 501.33430432338974 431.6191874176024 496.43430432338977 434.4191874176024L341.13430432338976 524.0191874176024L351.13430432338976 541.4191874176024L506.43430432338977 451.81918741760245C517.5343043233897 445.4191874176024 525.9343043233898 430.9191874176024 525.9343043233898 418.01918741760244L525.9343043233898 238.71918741760243C525.9343043233898 225.81918741760242 517.5343043233897 211.31918741760242 506.43430432338977 204.91918741760242Z " transform="matrix(1.6245066297500552,0,0,1.6245067540941995,-30.5383751476992,-29.539168992194803)"></path><path fill="#ffffff" d="M466.93430432338977 425.01918741760244C476.13430432338976 419.7191874176024 483.03430432338973 407.7191874176024 483.03430432338973 397.1191874176024L483.03430432338973 259.61918741760246C483.03430432338973 249.01918741760244 476.13430432338976 237.01918741760244 466.93430432338977 231.71918741760243L347.83430432338974 162.91918741760242C338.63430432338976 157.61918741760243 324.83430432338974 157.61918741760243 315.63430432338976 162.91918741760242L211.73430432338975 222.91918741760242C208.73430432338975 221.11918741760243 205.23430432338975 220.11918741760243 201.53430432338973 220.11918741760243C190.33430432338974 220.11918741760243 181.33430432338974 229.21918741760243 181.33430432338974 240.31918741760242C181.33430432338974 251.51918741760244 190.43430432338974 260.51918741760244 201.53430432338973 260.51918741760244C212.73430432338975 260.51918741760244 221.73430432338975 251.41918741760242 221.73430432338975 240.31918741760242C221.73430432338975 240.31918741760242 221.73430432338975 240.21918741760243 221.73430432338975 240.21918741760243L325.63430432338976 180.21918741760243C328.63430432338976 178.51918741760244 334.83430432338974 178.51918741760244 337.83430432338974 180.21918741760243L456.93430432338977 248.91918741760242C459.93430432338977 250.61918741760243 463.03430432338973 256.01918741760244 463.03430432338973 259.4191874176024L463.03430432338973 396.9191874176024C463.03430432338973 400.4191874176024 459.93430432338977 405.7191874176024 456.93430432338977 407.4191874176024L337.83430432338974 476.1191874176024C334.83430432338974 477.81918741760245 328.63430432338976 477.81918741760245 325.63430432338976 476.1191874176024L206.53430432338973 407.4191874176024L196.53430432338973 424.81918741760245L315.63430432338976 493.51918741760244C320.2343043233898 496.2191874176024 326.03430432338973 497.51918741760244 331.7343043233898 497.51918741760244C337.53430432338973 497.51918741760244 343.2343043233897 496.2191874176024 347.83430432338974 493.51918741760244L466.93430432338977 425.01918741760244Z " transform="matrix(1.6245066297500552,0,0,1.6245067540941995,-30.5383751476992,-29.539168992194803)"></path><path fill="#000000" d="M222.83430432338972 280.21918741760237L222.83430432338972 376.4191874176024C222.83430432338972 385.01918741760244 228.23430432338972 394.3191874176024 235.63430432338973 398.51918741760244L318.9343043233897 446.61918741760235C322.63430432338976 448.71918741760237 327.13430432338976 449.8191874176024 331.7343043233897 449.8191874176024C336.23430432338967 449.8191874176024 340.8343043233897 448.71918741760237 344.53430432338973 446.61918741760235L427.8343043233897 398.51918741760244C435.23430432338967 394.21918741760237 440.63430432338976 384.9191874176024 440.63430432338976 376.4191874176024L440.63430432338976 280.21918741760237C440.63430432338976 271.71918741760237 435.23430432338967 262.3191874176024 427.8343043233897 258.1191874176024L359.73430432338967 218.8191874176024C359.73430432338967 218.8191874176024 359.73430432338967 218.7191874176024 359.73430432338967 218.7191874176024C359.73430432338967 207.5191874176024 350.63430432338976 198.5191874176024 339.53430432338973 198.5191874176024C328.3343043233897 198.5191874176024 319.3343043233897 207.6191874176024 319.3343043233897 218.7191874176024C319.3343043233897 229.9191874176024 328.4343043233897 238.9191874176024 339.53430432338973 238.9191874176024C343.23430432338967 238.9191874176024 346.73430432338967 237.9191874176024 349.73430432338967 236.1191874176024L417.8343043233897 275.4191874176024C419.03430432338973 276.1191874176024 420.63430432338976 278.8191874176024 420.63430432338976 280.21918741760237L420.63430432338976 376.4191874176024C420.63430432338976 377.8191874176024 419.03430432338973 380.51918741760244 417.9343043233897 381.21918741760237L334.4343043233897 429.21918741760237C333.2343043233897 429.9191874176024 330.13430432338976 429.9191874176024 328.9343043233897 429.21918741760237L245.63430432338973 381.11918741760235C244.4343043233897 380.4191874176024 242.9343043233897 377.71918741760237 242.9343043233897 376.3191874176024L242.9343043233897 280.21918741760237L222.83430432338972 280.21918741760237Z " transform="matrix(1.6245066297500552,0,0,1.6245067540941995,-30.5383751476992,-29.539168992194803)"></path><path fill="#ffffff" d="M332.3343043233897 275.11918741760235L322.3343043233897 257.71918741760237L275.23430432338967 284.91918741760236C269.73430432338967 288.11918741760235 265.8343043233897 294.8191874176024 265.8343043233897 301.21918741760237L265.8343043233897 355.5191874176024C265.8343043233897 361.91918741760236 269.73430432338967 368.61918741760235 275.23430432338967 371.8191874176024L322.3343043233897 399.0191874176024C325.1343043233897 400.61918741760235 328.4343043233897 401.41918741760236 331.73430432338967 401.41918741760236C335.0343043233897 401.41918741760236 338.3343043233897 400.61918741760235 341.1343043233897 399.0191874176024L388.23430432338967 371.8191874176024C393.73430432338967 368.61918741760235 397.6343043233897 361.91918741760236 397.6343043233897 355.5191874176024L397.6343043233897 318.71918741760237C403.73430432338967 315.21918741760237 407.8343043233897 308.71918741760237 407.8343043233897 301.21918741760237C407.8343043233897 290.0191874176024 398.73430432338967 281.0191874176024 387.6343043233897 281.0191874176024C376.4343043233897 281.0191874176024 367.4343043233897 290.11918741760235 367.4343043233897 301.21918741760237C367.4343043233897 308.71918741760237 371.5343043233897 315.3191874176024 377.6343043233897 318.71918741760237L377.6343043233897 354.8191874176024L331.73430432338967 381.21918741760237L285.9343043233897 354.8191874176024L285.9343043233897 301.91918741760236L332.3343043233897 275.11918741760235Z " transform="matrix(1.6245066297500552,0,0,1.6245067540941995,-30.5383751476992,-29.539168992194803)"></path><g transform="matrix(3.2490132595001104,0,0,3.249013508188399,-30.5383751476992,-29.539168992194803)"></g></g></svg>