<svg xmlns="http://www.w3.org/2000/svg" width="1000" height="1000" id="empty" style=""><rect width="1000" height="1000" x="0" y="0" fill="#37373f" transform="matrix(1,0,0,1,0,0)"></rect><g id="horizontal" transform="matrix(1,0,0,1,0,0)"><g id="icon" transform="matrix(0.3181518784631418,0,0,0.31815185524511036,33.342389789835025,-71.28315237965833)"><path fill="#000000" d="M755.5419541434775 1727.7775668383563L600.3419541434774 1638.1775668383564C589.2419541434774 1631.7775668383563 572.4419541434775 1631.7775668383563 561.3419541434774 1638.1775668383564L406.0419541434775 1727.7775668383563C394.94195414347746 1734.1775668383564 386.5419541434775 1748.6775668383564 386.5419541434775 1761.5775668383562L386.5419541434775 1923.2775668383563C380.44195414347746 1926.7775668383563 376.34195414347744 1933.2775668383563 376.34195414347744 1940.7775668383563C376.34195414347744 1951.9775668383563 385.44195414347746 1960.9775668383563 396.5419541434775 1960.9775668383563C407.74195414347747 1960.9775668383563 416.74195414347747 1951.8775668383564 416.74195414347747 1940.7775668383563C416.74195414347747 1933.2775668383563 412.6419541434775 1926.6775668383564 406.5419541434775 1923.2775668383563L406.5419541434775 1761.5775668383562C406.5419541434775 1755.9775668383563 411.1419541434775 1747.9775668383563 416.0419541434775 1745.1775668383564L571.3419541434774 1655.5775668383562C576.2419541434774 1652.7775668383563 585.4419541434775 1652.7775668383563 590.2419541434774 1655.5775668383562L745.5419541434775 1745.1775668383564C750.4419541434775 1747.9775668383563 755.0419541434775 1755.9775668383563 755.0419541434775 1761.5775668383562L755.0419541434775 1940.8775668383564C755.0419541434775 1946.4775668383563 750.4419541434775 1954.4775668383563 745.5419541434775 1957.2775668383563L590.2419541434774 2046.8775668383564L600.2419541434774 2064.2775668383565L755.5419541434775 1974.6775668383564C766.6419541434775 1968.2775668383563 775.0419541434775 1953.7775668383563 775.0419541434775 1940.8775668383564L775.0419541434775 1761.5775668383562C775.0419541434775 1748.6775668383564 766.6419541434775 1734.1775668383564 755.5419541434775 1727.7775668383563Z " transform="matrix(0.9704709623597969,0,0,0.9704711109247682,1.4439699856636636,1.396716430729711)"></path><path fill="#ffffff" d="M716.0419541434775 1947.8775668383564C725.2419541434774 1942.5775668383562 732.1419541434775 1930.5775668383562 732.1419541434775 1919.9775668383563L732.1419541434775 1782.4775668383563C732.1419541434775 1771.8775668383564 725.2419541434774 1759.8775668383564 716.0419541434775 1754.5775668383562L596.9419541434775 1685.7775668383563C587.7419541434774 1680.4775668383563 573.9419541434775 1680.4775668383563 564.7419541434774 1685.7775668383563L460.84195414347744 1745.7775668383563C457.84195414347744 1743.9775668383563 454.34195414347744 1742.9775668383563 450.64195414347745 1742.9775668383563C439.44195414347746 1742.9775668383563 430.44195414347746 1752.0775668383562 430.44195414347746 1763.1775668383564C430.44195414347746 1774.3775668383564 439.5419541434775 1783.3775668383564 450.64195414347745 1783.3775668383564C461.84195414347744 1783.3775668383564 470.84195414347744 1774.2775668383563 470.84195414347744 1763.1775668383564C470.84195414347744 1763.1775668383564 470.84195414347744 1763.0775668383562 470.84195414347744 1763.0775668383562L574.7419541434774 1703.0775668383562C577.7419541434774 1701.3775668383564 583.9419541434775 1701.3775668383564 586.9419541434775 1703.0775668383562L706.0419541434775 1771.7775668383563C709.0419541434775 1773.4775668383563 712.1419541434775 1778.8775668383564 712.1419541434775 1782.2775668383563L712.1419541434775 1919.7775668383563C712.1419541434775 1923.2775668383563 709.0419541434775 1928.5775668383562 706.0419541434775 1930.2775668383563L586.9419541434775 1998.9775668383563C583.9419541434775 2000.6775668383564 577.7419541434774 2000.6775668383564 574.7419541434774 1998.9775668383563L455.64195414347745 1930.2775668383563L445.64195414347745 1947.6775668383564L564.7419541434774 2016.3775668383564C569.3419541434774 2019.0775668383562 575.1419541434775 2020.3775668383564 580.8419541434774 2020.3775668383564C586.6419541434775 2020.3775668383564 592.3419541434774 2019.0775668383562 596.9419541434775 2016.3775668383564L716.0419541434775 1947.8775668383564Z " transform="matrix(0.9704709623597969,0,0,0.9704711109247682,1.4439699856636636,1.396716430729711)"></path><path fill="#000000" d="M471.94195414347735 1803.0775668383562L471.94195414347735 1899.2775668383563C471.94195414347735 1907.8775668383564 477.3419541434774 1917.1775668383564 484.7419541434774 1921.3775668383564L568.0419541434774 1969.4775668383563C571.7419541434774 1971.5775668383562 576.2419541434774 1972.6775668383564 580.8419541434773 1972.6775668383564C585.3419541434773 1972.6775668383564 589.9419541434773 1971.5775668383562 593.6419541434774 1969.4775668383563L676.9419541434773 1921.3775668383564C684.3419541434773 1917.0775668383562 689.7419541434774 1907.7775668383563 689.7419541434774 1899.2775668383563L689.7419541434774 1803.0775668383562C689.7419541434774 1794.5775668383562 684.3419541434773 1785.1775668383564 676.9419541434773 1780.9775668383563L608.8419541434773 1741.6775668383564C608.8419541434773 1741.6775668383564 608.8419541434773 1741.5775668383562 608.8419541434773 1741.5775668383562C608.8419541434773 1730.3775668383564 599.7419541434774 1721.3775668383564 588.6419541434774 1721.3775668383564C577.4419541434773 1721.3775668383564 568.4419541434773 1730.4775668383563 568.4419541434773 1741.5775668383562C568.4419541434773 1752.7775668383563 577.5419541434774 1761.7775668383563 588.6419541434774 1761.7775668383563C592.3419541434773 1761.7775668383563 595.8419541434773 1760.7775668383563 598.8419541434773 1758.9775668383563L666.9419541434773 1798.2775668383563C668.1419541434774 1798.9775668383563 669.7419541434774 1801.6775668383564 669.7419541434774 1803.0775668383562L669.7419541434774 1899.2775668383563C669.7419541434774 1900.6775668383564 668.1419541434774 1903.3775668383564 667.0419541434774 1904.0775668383562L583.5419541434774 1952.0775668383562C582.3419541434773 1952.7775668383563 579.2419541434774 1952.7775668383563 578.0419541434774 1952.0775668383562L494.7419541434774 1903.9775668383563C493.54195414347737 1903.2775668383563 492.04195414347737 1900.5775668383562 492.04195414347737 1899.1775668383564L492.04195414347737 1803.0775668383562L471.94195414347735 1803.0775668383562Z " transform="matrix(0.9704709623597969,0,0,0.9704711109247682,1.4439699856636636,1.396716430729711)"></path><path fill="#ffffff" d="M581.4419541434773 1797.9775668383563L571.4419541434773 1780.5775668383562L524.3419541434773 1807.7775668383563C518.8419541434773 1810.9775668383563 514.9419541434773 1817.6775668383564 514.9419541434773 1824.0775668383562L514.9419541434773 1878.3775668383564C514.9419541434773 1884.7775668383563 518.8419541434773 1891.4775668383563 524.3419541434773 1894.6775668383564L571.4419541434773 1921.8775668383564C574.2419541434774 1923.4775668383563 577.5419541434774 1924.2775668383563 580.8419541434773 1924.2775668383563C584.1419541434774 1924.2775668383563 587.4419541434773 1923.4775668383563 590.2419541434774 1921.8775668383564L637.3419541434773 1894.6775668383564C642.8419541434773 1891.4775668383563 646.7419541434774 1884.7775668383563 646.7419541434774 1878.3775668383564L646.7419541434774 1841.5775668383562C652.8419541434773 1838.0775668383562 656.9419541434773 1831.5775668383562 656.9419541434773 1824.0775668383562C656.9419541434773 1812.8775668383564 647.8419541434773 1803.8775668383564 636.7419541434774 1803.8775668383564C625.5419541434774 1803.8775668383564 616.5419541434774 1812.9775668383563 616.5419541434774 1824.0775668383562C616.5419541434774 1831.5775668383562 620.6419541434774 1838.1775668383564 626.7419541434774 1841.5775668383562L626.7419541434774 1877.6775668383564L580.8419541434773 1904.0775668383562L535.0419541434774 1877.6775668383564L535.0419541434774 1824.7775668383563L581.4419541434773 1797.9775668383563Z " transform="matrix(0.9704709623597969,0,0,0.9704711109247682,1.4439699856636636,1.396716430729711)"></path><g transform="matrix(1.9409419247195938,0,0,1.9409422218495365,1.4439699856636636,1.396716430729711)"></g></g><g id="logo" transform="matrix(0.3181518784631418,0,0,0.31815185524511036,182.18235935058303,-71.28315237965833)"><g id="brand" fill="#ececec" transform="matrix(1,0,0,1,0,0)"><g transform="matrix(3,0,0,3,0,0)"><path id="text" transform="matrix(1 0 0 1 -2.496 68.928)" d="M158.34029515546987 507.24749304865963L140.0042951554699 507.24749304865963L140.0042951554699 563.6954930486596L126.66029515546988 563.6954930486596L126.66029515546988 507.24749304865963L108.42029515546987 507.24749304865963L108.42029515546987 495.34349304865964L158.34029515546987 495.34349304865964L158.34029515546987 507.24749304865963ZM213.7322951554699 563.6954930486596L189.5402951554699 563.6954930486596C181.86029515546988 563.6954930486596 176.4682951554699 562.3674930486596 173.36429515546988 559.7114930486596C170.26029515546986 557.0554930486596 168.70829515546987 552.3674930486596 168.70829515546987 545.6474930486596L168.70829515546987 495.34349304865964L213.7322951554699 495.34349304865964L213.7322951554699 507.24749304865963L182.0522951554699 507.24749304865963L182.0522951554699 523.2794930486596L204.22829515546988 523.2794930486596L203.26829515546987 535.1834930486596L182.0522951554699 535.1834930486596L182.0522951554699 544.6874930486596C182.0522951554699 547.3754930486596 182.6602951554699 549.2314930486596 183.87629515546988 550.2554930486596C185.09229515546988 551.2794930486596 187.30029515546988 551.7914930486596 190.50029515546987 551.7914930486596L213.7322951554699 551.7914930486596L213.7322951554699 563.6954930486596ZM261.3482951554699 537.1994930486596L273.73229515546984 537.1994930486596C273.73229515546984 545.9034930486596 271.5562951554699 552.5914930486596 267.2042951554699 557.2634930486596C262.85229515546985 561.9354930486596 256.70829515546984 564.2714930486596 248.7722951554699 564.2714930486596C231.30029515546988 564.2714930486596 222.5642951554699 553.9994930486596 222.5642951554699 533.4554930486596L222.5642951554699 527.6954930486596C222.5642951554699 511.5034930486596 227.04429515546988 501.3594930486596 236.0042951554699 497.2634930486596C239.52429515546987 495.5994930486596 243.78029515546987 494.7674930486596 248.7722951554699 494.7674930486596C256.06829515546985 494.7674930486596 262.0042951554699 496.7674930486596 266.5802951554699 500.7674930486596C271.1562951554699 504.7674930486596 273.4442951554699 510.5434930486596 273.4442951554699 518.0954930486596L260.96429515546987 518.0954930486596C260.26029515546986 514.3194930486596 259.0122951554699 511.4714930486596 257.2202951554699 509.5514930486596C255.42829515546987 507.6314930486596 252.61229515546987 506.6714930486596 248.7722951554699 506.6714930486596C244.29229515546987 506.6714930486596 240.96429515546987 508.07949304865963 238.78829515546988 510.8954930486596C237.25229515546988 512.8794930486596 236.35629515546987 516.2714930486596 236.10029515546987 521.0714930486596C235.97229515546988 522.6074930486596 235.9082951554699 524.6874930486596 235.9082951554699 527.3114930486596L235.9082951554699 533.2634930486596C235.9082951554699 540.6234930486596 236.9322951554699 545.6474930486596 238.9802951554699 548.3354930486596C241.09229515546988 551.0234930486596 244.37229515546989 552.3674930486596 248.82029515546986 552.3674930486596C253.26829515546987 552.3674930486596 256.3402951554699 551.1354930486597 258.0362951554699 548.6714930486596C259.73229515546984 546.2074930486597 260.8362951554699 542.3834930486596 261.3482951554699 537.1994930486596ZM335.84429515546987 563.6954930486596L322.50029515546987 563.6954930486596L322.50029515546987 536.0474930486596L297.4442951554699 536.0474930486596L297.4442951554699 563.6954930486596L284.1002951554699 563.6954930486596L284.1002951554699 495.34349304865964L297.4442951554699 495.34349304865964L297.4442951554699 524.2394930486596L322.50029515546987 524.2394930486596L322.50029515546987 495.34349304865964L335.84429515546987 495.34349304865964L335.84429515546987 563.6954930486596ZM404.1002951554699 495.34349304865964L404.1002951554699 556.7834930486596C404.1002951554699 558.8954930486597 403.4602951554699 560.7034930486597 402.1802951554698 562.2074930486596C400.90029515546985 563.7114930486596 399.39629515546983 564.4634930486596 397.6682951554699 564.4634930486596C393.2522951554698 564.4634930486596 389.63629515546984 561.9034930486596 386.8202951554699 556.7834930486596L363.2042951554698 519.8234930486597L363.2042951554698 563.6954930486596L349.8602951554699 563.6954930486596L349.8602951554699 495.34349304865964L362.7242951554699 495.34349304865964L390.75629515546984 540.0794930486596L390.75629515546984 495.34349304865964L404.1002951554699 495.34349304865964ZM468.03629515546993 526.3514930486596L468.03629515546993 531.5354930486596C468.03629515546993 542.9914930486597 465.87629515546985 551.3114930486596 461.5562951554699 556.4954930486596C457.23629515546986 561.6794930486597 450.30829515546986 564.2714930486596 440.7722951554699 564.2714930486596C431.23629515546986 564.2714930486596 424.3402951554699 561.6794930486597 420.08429515546993 556.4954930486596C415.82829515546985 551.3114930486596 413.7002951554699 542.8954930486597 413.7002951554699 531.2474930486596L413.7002951554699 526.2554930486597C413.7002951554699 515.6314930486596 415.8602951554699 507.7274930486596 420.1802951554698 502.5434930486596C424.50029515546987 497.3594930486596 431.3482951554698 494.7674930486596 440.7242951554699 494.7674930486596C450.1002951554699 494.7674930486596 456.99629515546985 497.39149304865964 461.4122951554699 502.63949304865963C465.82829515546985 507.8874930486596 468.03629515546993 515.7914930486596 468.03629515546993 526.3514930486596ZM454.6922951554699 531.2474930486596L454.6922951554699 527.6954930486596C454.6922951554699 521.5514930486596 453.92429515546985 516.6554930486597 452.3882951554699 513.0074930486596C450.5962951554699 508.78349304865964 446.75629515546984 506.6714930486596 440.8682951554699 506.6714930486596C434.9162951554699 506.6714930486596 431.04429515546985 508.78349304865964 429.2522951554698 513.0074930486596C427.78029515546984 516.4634930486596 427.04429515546985 521.3594930486596 427.04429515546985 527.6954930486596L427.04429515546985 531.2474930486596C427.04429515546985 539.5034930486596 428.1962951554699 545.0714930486596 430.50029515546987 547.9514930486596C431.39629515546983 549.1674930486596 432.7242951554699 550.2074930486597 434.4842951554699 551.0714930486596C436.2442951554699 551.9354930486596 438.35629515546987 552.3674930486596 440.8202951554699 552.3674930486596C443.28429515546986 552.3674930486596 445.38029515546987 551.9514930486596 447.10829515546993 551.1194930486596C448.8362951554699 550.2874930486596 450.1802951554698 549.2634930486596 451.14029515546986 548.0474930486596C452.1002951554699 546.8314930486596 452.8362951554699 545.2314930486596 453.3482951554698 543.2474930486596C454.2442951554699 540.1114930486597 454.6922951554699 536.1114930486597 454.6922951554699 531.2474930486596ZM521.8922951554699 563.6954930486596L501.54029515546983 563.6954930486596C493.8602951554699 563.6954930486596 488.30829515546986 562.2074930486596 484.8842951554699 559.2314930486596C481.4602951554699 556.2554930486596 479.7482951554699 551.4074930486596 479.7482951554699 544.6874930486596L479.7482951554699 495.34349304865964L493.09229515546986 495.34349304865964L493.09229515546986 544.6874930486596C493.09229515546986 547.3754930486596 493.7002951554699 549.2314930486596 494.9162951554699 550.2554930486596C496.13229515546993 551.2794930486596 498.3402951554699 551.7914930486596 501.54029515546983 551.7914930486596L521.8922951554699 551.7914930486596L521.8922951554699 563.6954930486596ZM582.6602951554698 526.3514930486596L582.6602951554698 531.5354930486596C582.6602951554698 542.9914930486597 580.5002951554699 551.3114930486596 576.1802951554698 556.4954930486596C571.8602951554699 561.6794930486597 564.9322951554699 564.2714930486596 555.3962951554698 564.2714930486596C545.8602951554699 564.2714930486596 538.9642951554699 561.6794930486597 534.7082951554698 556.4954930486596C530.4522951554699 551.3114930486596 528.3242951554698 542.8954930486597 528.3242951554698 531.2474930486596L528.3242951554698 526.2554930486597C528.3242951554698 515.6314930486596 530.4842951554699 507.7274930486596 534.8042951554698 502.5434930486596C539.1242951554699 497.3594930486596 545.9722951554699 494.7674930486596 555.3482951554698 494.7674930486596C564.7242951554699 494.7674930486596 571.6202951554699 497.39149304865964 576.0362951554699 502.63949304865963C580.4522951554699 507.8874930486596 582.6602951554698 515.7914930486596 582.6602951554698 526.3514930486596ZM569.3162951554699 531.2474930486596L569.3162951554699 527.6954930486596C569.3162951554699 521.5514930486596 568.5482951554699 516.6554930486597 567.0122951554699 513.0074930486596C565.2202951554699 508.78349304865964 561.3802951554699 506.6714930486596 555.4922951554698 506.6714930486596C549.5402951554698 506.6714930486596 545.6682951554699 508.78349304865964 543.8762951554698 513.0074930486596C542.4042951554699 516.4634930486596 541.6682951554699 521.3594930486596 541.6682951554699 527.6954930486596L541.6682951554699 531.2474930486596C541.6682951554699 539.5034930486596 542.8202951554699 545.0714930486596 545.1242951554699 547.9514930486596C546.0202951554699 549.1674930486596 547.3482951554698 550.2074930486597 549.1082951554699 551.0714930486596C550.8682951554699 551.9354930486596 552.9802951554699 552.3674930486596 555.4442951554698 552.3674930486596C557.9082951554699 552.3674930486596 560.0042951554699 551.9514930486596 561.7322951554698 551.1194930486596C563.4602951554699 550.2874930486596 564.8042951554698 549.2634930486596 565.7642951554699 548.0474930486596C566.7242951554699 546.8314930486596 567.4602951554699 545.2314930486596 567.9722951554699 543.2474930486596C568.8682951554699 540.1114930486597 569.3162951554699 536.1114930486597 569.3162951554699 531.2474930486596ZM590.1482951554699 531.5354930486596L590.1482951554699 523.0874930486597C590.1482951554699 514.1914930486596 592.4842951554699 507.24749304865963 597.1562951554699 502.2554930486596C601.8282951554698 497.2634930486596 608.2922951554699 494.7674930486596 616.5482951554699 494.7674930486596C624.8042951554698 494.7674930486596 631.4282951554699 497.2634930486596 636.4202951554698 502.2554930486596C639.9402951554698 505.7754930486596 641.7002951554698 511.0554930486596 641.7002951554698 518.0954930486596L629.2202951554699 518.0954930486596C629.2202951554699 510.4794930486596 625.1562951554698 506.6714930486596 617.0282951554699 506.6714930486596C614.5962951554699 506.6714930486596 612.5322951554699 507.1354930486596 610.8362951554699 508.0634930486596C609.1402951554699 508.9914930486596 607.8762951554698 510.0634930486596 607.0442951554699 511.2794930486596C606.2122951554699 512.4954930486596 605.5722951554699 514.2874930486596 605.1242951554699 516.6554930486597C604.6762951554699 519.0234930486596 604.4202951554698 521.0074930486596 604.3562951554699 522.6074930486596C604.2922951554699 524.2074930486597 604.2602951554699 526.3514930486596 604.2602951554699 529.0394930486597C604.2602951554699 531.7274930486597 604.2762951554698 533.5354930486596 604.3082951554699 534.4634930486596C604.3402951554699 535.3914930486596 604.4362951554699 536.8954930486597 604.5962951554699 538.9754930486596C604.7562951554698 541.0554930486596 605.0122951554699 542.5434930486596 605.3642951554699 543.4394930486596C605.7162951554699 544.3354930486596 606.2282951554698 545.4874930486596 606.9002951554698 546.8954930486597C607.5722951554699 548.3034930486596 608.4202951554698 549.2954930486596 609.4442951554698 549.8714930486597C612.0682951554699 551.5354930486596 615.0442951554699 552.3674930486596 618.3722951554698 552.3674930486596C623.9402951554698 552.3674930486596 627.8762951554698 549.9994930486596 630.1802951554698 545.2634930486596L630.1802951554698 540.6554930486597L621.9242951554698 540.6554930486597L621.9242951554698 529.5194930486596L641.6042951554698 529.5194930486596L641.6042951554698 550.1594930486597C639.6202951554699 554.8314930486596 636.4842951554698 558.3514930486596 632.1962951554699 560.7194930486596C627.9082951554699 563.0874930486597 623.0442951554699 564.2714930486596 617.6042951554699 564.2714930486596C607.9402951554699 564.2714930486596 600.9482951554699 561.5674930486596 596.6282951554699 556.1594930486597C592.3082951554699 550.7514930486597 590.1482951554699 542.5434930486596 590.1482951554699 531.5354930486596ZM702.1802951554698 495.34349304865964L681.6362951554698 535.6634930486596L681.6362951554698 563.6954930486596L668.3882951554699 563.6954930486596L668.3882951554699 535.6634930486596L647.8442951554698 495.34349304865964L662.3402951554699 495.34349304865964L675.1082951554698 522.8954930486597L687.6842951554698 495.34349304865964L702.1802951554698 495.34349304865964Z "></path></g></g></g></g></svg>